<?xml version="1.0" encoding="utf-8"?>
<!-- Generator: Adobe Illustrator 24.3.0, SVG Export Plug-In . SVG Version: 6.00 Build 0)  -->
<svg version="1.1" id="Layer_1" xmlns="http://www.w3.org/2000/svg" xmlns:xlink="http://www.w3.org/1999/xlink" x="0px" y="0px"
	 viewBox="0 0 312.9 314.1" style="enable-background:new 0 0 312.9 314.1;" xml:space="preserve">
<style type="text/css">
	.st0{fill:#58595B;}
	.st1{fill:#414042;}
	.st2{fill:#FFCD34;}
</style>
<g id="Layer_3">
	<circle class="st0" cx="156.2" cy="156.8" r="149.5"/>
</g>
<g id="Layer_6">
	<circle cx="150.9" cy="156.8" r="144.1"/>
</g>
<g id="Layer_4">
	<circle class="st1" cx="145.9" cy="155.7" r="139.1"/>
</g>
<g id="Layer_5">
	<circle class="st0" cx="139.1" cy="155.7" r="132.5"/>
</g>
<g id="Layer_7">
	<circle cx="134.2" cy="156.8" r="127.6"/>
</g>
<g id="Layer_9">
	<circle class="st1" cx="128.1" cy="156.8" r="121.5"/>
</g>
<g id="Layer_10">
	<circle class="st0" cx="120.2" cy="155.7" r="113.7"/>
</g>
<g id="Layer_11">
	<circle cx="114.3" cy="155.7" r="107.7"/>
</g>
<g id="Layer_12">
	<circle class="st1" cx="109.3" cy="156.8" r="102.7"/>
</g>
<g id="Layer_13">
	<circle class="st0" cx="101.6" cy="155.7" r="95"/>
</g>
<g id="Layer_14">
	<circle class="st1" cx="97.7" cy="155.7" r="91.2"/>
</g>
<g id="Layer_16">
	<circle cx="93.3" cy="156.8" r="86.7"/>
</g>
<g id="Layer_17">
	<circle cx="87.1" cy="156.8" r="81.8"/>
</g>
<g id="Layer_1_1_">
	<g id="Layer_15">
	</g>
	<g id="Layer_8">
	</g>
	<path class="st2" d="M87.1,154.4c0,0,40.7-76.5,108.6-76.5h1.7c67.9-2.6,108.6,76.5,108.6,76.5v2.7c0,0-40.7,76.5-108.6,76.5h-1.7
		c-67.9,0-108.6-76.5-108.6-76.5V154.4z"/>
</g>
<g id="Layer_2_1_">
	<path d="M199.2,78.9c0,0,51.4,72.2,0,155.8h-0.8c-51.4-83.6,0-155.8,0-155.8L199.2,78.9z"/>
</g>
</svg>
